<svg xmlns="http://www.w3.org/2000/svg" version="1.1" xmlns:xlink="http://www.w3.org/1999/xlink" xmlns:svgjs="http://svgjs.dev/svgjs" width="100%" height="100%" viewBox="0 0 1000 600"><rect width="1000" height="600" x="0" y="0" fill="#132043"/><g><rect width="333.3333333333333" height="333.3333333333333" rx="13.333333333333334" ry="13.333333333333334" y="240.1181734134828" fill="#c70039" transform="matrix(0.5736682358198484,0,0,0.5736682358198484,0,66.6404469888697)" x="217.89596557617188"/><path d="M330.67757580936666 481.7848172386394L312.20016968351763 481.7848172386394L312.20016968351763 331.78482173533547L340.22570911841785 331.78482173533547L385.19623822215885 414.2995540357777L429.5479068336466 331.78482173533547L456.9251162290433 331.78482173533547L456.9251162290433 481.7848172386394L438.44771010319425 481.7848172386394L438.44771010319425 351.29366201494L389.02727936467943 442.531380301429L380.54004975663395 442.531380301429L330.67757580936666 351.29366201494L330.67757580936666 481.7848172386394Z " fill="#fdf0f0" transform="matrix(0.5736682358198484,0,0,0.5736682358198484,0,66.6404469888697)"/><path d="M649.1259742486816 450.0102742284901L634.5626423605779 450.0102742284901L634.5626423605779 331.78482078279904L656.6515237410989 331.78482078279904L692.0959327702001 396.8204336802322L727.0525747025704 331.78482078279904L748.6304619817545 331.78482078279904L748.6304619817545 450.0102742284901L734.0671300936506 450.0102742284901L734.0671300936506 347.16109783212073L695.1154433690094 419.0719040929969L688.4260660424163 419.0719040929969L649.1259742486816 347.16109783212073L649.1259742486816 450.0102742284901ZM802.6332476912303 451.00903542655783L802.6332476912303 451.00903542655783Q796.6174534982176 451.00903542655783 791.0197453881171 449.42959911333446Q785.4220372780167 447.8269357955048 780.9856793982274 444.5751551506332Q776.5493215184383 441.32337450576154 773.9711240071472 436.37602252463535Q771.3696994912498 431.4518975481154 771.3696994912498 424.92510925376587L771.3696994912498 424.92510925376587Q771.3696994912498 417.3995597613486 774.1337130393907 412.21993773416017Q776.8977265875317 407.04031570697174 781.5663545133831 404.02080510816234Q786.2582094438408 401.00129450935293 792.436592669097 399.6773552467981Q798.6382028989593 398.33018897963694 805.3275802255524 398.33018897963694L805.3275802255524 398.33018897963694L831.2489173661008 398.33018897963694Q831.2489173661008 390.8046394872197 829.1584869515405 385.29983939554404Q827.0680565369802 379.77181229926225 822.3762016065225 376.68262068663415Q817.6843466760647 373.5934290740061 809.996208151404 373.5934290740061L809.996208151404 373.5934290740061Q805.3275802255524 373.5934290740061 801.3093084286753 374.5921902720738Q797.2910366317982 375.59095147014153 794.4573420698387 377.77428990312677Q791.6004205032729 379.9344013315058 790.2764812407179 383.62749506389576L790.2764812407179 383.62749506389576L775.0395662190335 383.62749506389576Q776.2241434539511 377.58847386627696 779.6385131310664 373.3379320233376Q783.0761098127878 369.064163175792 788.0002347893078 366.3001496276511Q792.9475867704339 363.5593630841164 798.6382028989593 362.21219681695527Q804.3055920228785 360.86503054979414 809.996208151404 360.86503054979414L809.996208151404 360.86503054979414Q829.0655789331156 360.86503054979414 837.1021225268698 372.0836737746014Q845.1154391160178 383.2790899948024 845.1154391160178 402.34846077651406L845.1154391160178 402.34846077651406L845.1154391160178 450.0102742284901L833.2464397622363 450.0102742284901L832.4102675964122 438.8148580082891Q828.7404008686284 443.831891003234 823.5375518368337 446.50299653294996Q818.3579298096454 449.17410206266595 812.9228107317884 450.10318224691497Q807.4876916539315 451.00903542655783 802.6332476912303 451.00903542655783ZM803.9804139583914 438.4664529391957L803.9804139583914 438.4664529391957Q812.3421356166327 438.4664529391957 818.4508378280702 435.70243939105484Q824.5595400395077 432.9616528475201 827.9042287028043 427.59621478348186Q831.2489173661008 422.2540037240498 831.2489173661008 414.565865199389L831.2489173661008 414.565865199389L831.2489173661008 410.1991883334185L815.6868242799293 410.1991883334185Q810.1587971836475 410.1991883334185 804.8165861242155 410.3850043702683Q799.4743750647835 410.5475934025119 795.107698198813 411.7089436328232Q790.7642483374486 412.89352086774073 788.1860508261576 415.7272154297003Q785.5846263102602 418.5609099916599 785.5846263102602 423.92634805569816L785.5846263102602 423.92634805569816Q785.5846263102602 428.943381050643 788.1860508261576 432.125480681696Q790.7642483374486 435.2843533081427 795.0380171849943 436.8870166259723Q799.2885590279336 438.4664529391957 803.9804139583914 438.4664529391957ZM902.4861404933964 451.00903542655783L902.4861404933964 451.00903542655783Q889.2699748724538 451.00903542655783 880.7456641819688 445.08614925197014Q872.2213534914838 439.14003607277624 868.040492662363 429.0130620644617Q863.8596318332424 418.9093150607533 863.8596318332424 406.2041435411476L863.8596318332424 406.2041435411476Q863.8596318332424 393.47574501693566 868.040492662363 383.2094089809837Q872.2213534914838 372.91984594042555 880.9082532142123 366.90405174741295Q889.595152936941 360.86503054979414 903.159723626977 360.86503054979414L903.159723626977 360.86503054979414Q908.3393456541654 360.86503054979414 913.6118756997787 362.11928879853036Q918.8611787407858 363.3735470472666 923.5530336712436 365.97497156316393Q928.2448886017012 368.5763960790612 931.5895772649978 372.91984594042555L931.5895772649978 372.91984594042555L931.5895772649978 331.78482078279904L945.8045040840082 331.78482078279904L945.8045040840082 450.0102742284901L932.239933393972 450.0102742284901L931.5895772649978 436.79410860754746Q928.5700666661884 441.8111416024923 923.9711197541557 444.9003332151203Q919.3721728421228 448.01275183235464 913.8441457458409 449.4992801271531Q908.3393456541654 451.00903542655783 902.4861404933964 451.00903542655783ZM904.4836628895318 438.4664529391957L904.4836628895318 438.4664529391957Q913.3563786491103 438.4664529391957 919.3721728421228 433.96041404558787Q925.3879670351355 429.43114814737373 928.5700666661884 421.90559865495646Q931.7521662972414 414.3800491625392 931.7521662972414 405.53056040756707L931.7521662972414 405.53056040756707Q931.7521662972414 396.33266658350146 928.6629746846133 389.1322951555714Q925.5505560673789 381.9551507322475 919.5347618743664 377.77428990312677Q913.5189676813538 373.5934290740061 904.3210738572883 373.5934290740061L904.3210738572883 373.5934290740061Q894.7980019687355 373.5934290740061 889.0144778217852 377.9368789353704Q883.2541806794412 382.28032879673464 880.6527561635438 389.71297027072706Q878.0745586522528 397.16883874932563 878.0745586522528 406.3667325733912L878.0745586522528 406.3667325733912Q878.0745586522528 413.05610989998434 879.4914059332325 418.8164070423284Q880.9082532142123 424.5999311892787 883.9974448268405 429.0130620644617Q887.0866364394685 433.44941994425085 892.1036694344134 435.9579364417233Q897.1207024293582 438.4664529391957 904.4836628895318 438.4664529391957ZM996.4626011301873 451.00903542655783L996.4626011301873 451.00903542655783Q990.4468069371749 451.00903542655783 984.8490988270744 449.42959911333446Q979.2513907169739 447.8269357955048 974.8150328371846 444.5751551506332Q970.3786749573954 441.32337450576154 967.7772504414982 436.37602252463535Q965.199052930207 431.4518975481154 965.199052930207 424.92510925376587L965.199052930207 424.92510925376587Q965.199052930207 417.3995597613486 967.963066478348 412.21993773416017Q970.7038530218827 407.04031570697174 975.3957079523403 404.02080510816234Q980.087562882798 401.00129450935293 986.2659461080542 399.6773552467981Q992.4443293333103 398.33018897963694 999.1337066599034 398.33018897963694L999.1337066599034 398.33018897963694L1025.0550438004518 398.33018897963694Q1025.0550438004518 390.8046394872197 1022.9646133858914 385.29983939554404Q1020.874182971331 379.77181229926225 1016.2055550454796 376.68262068663415Q1011.513700115022 373.5934290740061 1003.8255615903611 373.5934290740061L1003.8255615903611 373.5934290740061Q999.1337066599034 373.5934290740061 995.1386618676325 374.5921902720738Q991.1203900707554 375.59095147014153 988.2634685041895 377.77428990312677Q985.42977394223 379.9344013315058 984.0826076750689 383.62749506389576L984.0826076750689 383.62749506389576L968.8689196579908 383.62749506389576Q970.0534968929082 377.58847386627696 973.4678665700235 373.3379320233376Q976.905463251745 369.064163175792 981.829588228265 366.3001496276511Q986.7769402093911 363.5593630841164 992.4443293333103 362.21219681695527Q998.1349454618357 360.86503054979414 1003.8255615903611 360.86503054979414L1003.8255615903611 360.86503054979414Q1022.8949323720727 360.86503054979414 1030.9082489612208 372.0836737746014Q1038.944792554975 383.2790899948024 1038.944792554975 402.34846077651406L1038.944792554975 402.34846077651406L1038.944792554975 450.0102742284901L1027.0757932011934 450.0102742284901L1026.2396210353693 438.8148580082891Q1022.5465273029795 443.831891003234 1017.3669052757909 446.50299653294996Q1012.1872832486026 449.17410206266595 1006.7521641707456 450.10318224691497Q1001.3170450928887 451.00903542655783 996.4626011301873 451.00903542655783ZM997.8097673973485 438.4664529391957L997.8097673973485 438.4664529391957Q1006.17148905559 438.4664529391957 1012.2801912670275 435.70243939105484Q1018.3656664738587 432.9616528475201 1021.7103551371553 427.59621478348186Q1025.0550438004518 422.2540037240498 1025.0550438004518 414.565865199389L1025.0550438004518 414.565865199389L1025.0550438004518 410.1991883334185L1009.5161777188864 410.1991883334185Q1003.9881506226047 410.1991883334185 998.6459395631725 410.3850043702683Q993.2805014991344 410.5475934025119 988.9370516377701 411.7089436328232Q984.5936017764059 412.89352086774073 981.9921772605085 415.7272154297003Q979.4139797492173 418.5609099916599 979.4139797492173 423.92634805569816L979.4139797492173 423.92634805569816Q979.4139797492173 428.943381050643 981.9921772605085 432.125480681696Q984.5936017764059 435.2843533081427 988.8673706239515 436.8870166259723Q993.1179124668909 438.4664529391957 997.8097673973485 438.4664529391957ZM1075.2253737499002 450.0102742284901L1061.0104469308899 450.0102742284901L1061.0104469308899 361.8870187524681L1074.7376066531695 361.8870187524681L1075.4111897867501 375.2657734056544Q1078.4074733809532 370.4113294429531 1083.099328311411 367.2292298119001Q1087.7679562372623 364.04713018084715 1093.388891351969 362.4676938676238Q1098.9865994620695 360.86503054979414 1104.3288105215015 360.86503054979414L1104.3288105215015 360.86503054979414Q1117.2197980779572 360.86503054979414 1124.489850519706 366.2304686138324Q1131.7599029614546 371.5726796732644 1134.8490945740828 380.70089248351127Q1137.938286186711 389.8058782891519 1137.938286186711 401.34969957844635L1137.938286186711 401.34969957844635L1137.938286186711 450.0102742284901L1123.7233593677006 450.0102742284901L1123.7233593677006 405.18215533847365Q1123.7233593677006 399.0037721132175 1122.9800952203013 393.31315598469206Q1122.236831072902 387.62253985616667 1119.9605846214918 383.1165009625588Q1117.707565174688 378.61046206895094 1113.5267043455672 376.0090375530536Q1109.3458435164464 373.4076130371563 1102.3312881253662 373.4076130371563L1102.3312881253662 373.4076130371563Q1093.6211613980313 373.4076130371563 1087.5356861912 378.2620569998575Q1081.4269839797626 383.1165009625588 1078.3377923671346 391.31563358855664Q1075.2253737499002 399.51476621455447 1075.2253737499002 409.7114212366877L1075.2253737499002 409.7114212366877L1075.2253737499002 450.0102742284901ZM1191.964298900793 451.00903542655783L1191.964298900793 451.00903542655783Q1185.9485047077803 451.00903542655783 1179.8398024963428 449.8476851962465Q1173.7311002849053 448.663107961329 1168.458570239292 445.8294133993694Q1163.209267198285 442.9957188374098 1159.6787624981384 438.14127487470853Q1156.1714848025983 433.28683091200725 1155.1727236045308 426.0864594840772L1155.1727236045308 426.0864594840772L1169.5502394557848 426.0864594840772Q1171.222583787433 430.61572538229126 1174.9853585336416 433.3797389304322Q1178.7481332798502 436.12052547396684 1183.5096692241264 437.3051027088844Q1188.2944321730092 438.4664529391957 1192.6378820343734 438.4664529391957L1192.6378820343734 438.4664529391957Q1195.3089875640894 438.4664529391957 1198.8162652596297 438.14127487470853Q1202.3235429551696 437.79286980561517 1205.5985506046477 436.53861155687895Q1208.8503312495193 435.2843533081427 1210.9407616640797 432.7758368106703Q1213.0311920786398 430.2673203131979 1213.0311920786398 425.76128141959003L1213.0311920786398 425.76128141959003Q1213.0311920786398 422.4165927562934 1211.5214367792353 420.2332543233082Q1210.034908484437 418.07314289492916 1207.3405759501147 416.65629561394934Q1204.6694704203987 415.2162213283633 1200.8370146603713 414.565865199389L1200.8370146603713 414.565865199389Q1192.9630600988605 412.89352086774073 1184.0206633254634 411.38376556833606Q1175.0782665520665 409.87401026893133 1168.2263001932297 405.6931494398106L1168.2263001932297 405.6931494398106Q1165.880372728001 404.18339414040594 1163.9525313456843 402.25555275808915Q1162.0246899633673 400.35093838037864 1160.7007507008125 397.9121028967249Q1159.3535844336513 395.49649441767735 1158.6103202862523 392.56989183729286Q1157.8438291342468 389.64328925690836 1157.8438291342468 386.1360115613682L1157.8438291342468 386.1360115613682Q1157.8438291342468 379.60922326701865 1160.445253650144 374.8476873227423Q1163.023451161435 370.0629243738597 1167.7153060918927 366.97373276123164Q1172.4071610223505 363.88454114860355 1178.4926362291817 362.3747858491989Q1184.6013384406192 360.86503054979414 1191.6391208363057 360.86503054979414L1191.6391208363057 360.86503054979414Q1200.3260205590343 360.86503054979414 1207.270894936296 363.6290440979351Q1214.2157693135575 366.393057646076 1218.7218082071654 371.6655876916893Q1223.2278471007733 376.93811773730266 1224.0640192665974 384.62625626196353L1224.0640192665974 384.62625626196353L1210.8710806502609 384.62625626196353Q1209.6865034153434 379.77181229926225 1204.5068813881549 376.68262068663415Q1199.3272593609665 373.5934290740061 1191.2907157672123 373.5934290740061L1191.2907157672123 373.5934290740061Q1188.6196102374963 373.5934290740061 1185.2749215741997 374.01151515691816Q1181.9302329109032 374.4296012398302 1178.9107223120936 375.68385948856644Q1175.9144387178908 376.93811773730266 1173.893689317149 379.35372621635014Q1171.8961669210134 381.7693346953977 1171.8961669210134 385.7876064922748L1171.8961669210134 385.7876064922748Q1171.8961669210134 389.48070022466476 1173.8240083033302 391.9892167221372Q1175.751849685647 394.49773321960964 1179.2591273811872 395.9842615144081Q1182.7664050767273 397.4940168138128 1187.2724439703352 398.4927780118805L1187.2724439703352 398.4927780118805Q1193.1256491311042 399.6773552467981 1200.1634315267906 400.93161349553424Q1207.1779869178708 402.18587174427046 1211.1962587147482 403.5098110068254L1211.1962587147482 403.5098110068254Q1216.5384697741802 405.18215533847365 1220.138655488145 408.20166593728305Q1223.7388412021103 411.22117653609246 1225.5040935521833 415.4020373652132Q1227.2461188976504 419.58289819433384 1227.2461188976504 425.0876982860094L1227.2461188976504 425.0876982860094Q1227.2461188976504 432.9616528475201 1224.1569272850224 437.9786858424649Q1221.067735672394 442.9957188374098 1215.888113645206 445.8294133993694Q1210.6852646134112 448.663107961329 1204.4139733697302 449.8476851962465Q1198.142682126049 451.00903542655783 1191.964298900793 451.00903542655783ZM1259.1832502312116 450.0102742284901L1244.968323412201 450.0102742284901L1244.968323412201 331.78482078279904L1259.1832502312116 331.78482078279904L1259.1832502312116 375.42836243789793Q1262.3653498622643 370.73650750744025 1266.964296774297 367.4847268625686Q1271.56324368633 364.20971921309075 1277.0912707826117 362.5373748814424Q1282.5960708742873 360.86503054979414 1288.449276035056 360.86503054979414L1288.449276035056 360.86503054979414Q1301.3402635915118 360.86503054979414 1308.6103160332607 366.2304686138324Q1315.8803684750094 371.5726796732644 1318.8998790738187 380.70089248351127Q1321.896162668022 389.8058782891519 1321.896162668022 401.5122886106899L1321.896162668022 401.5122886106899L1321.896162668022 450.0102742284901L1307.6812358490115 450.0102742284901L1307.6812358490115 405.8557384720542Q1307.6812358490115 400.0025333112852 1306.9379717016125 394.24223616894113Q1306.1947075542132 388.45871202199083 1304.011369121228 383.79008409613937Q1301.8280306882427 379.0982291656817 1297.4148998130595 376.2645346037221Q1292.9785419332704 373.4076130371563 1285.4529924408532 373.4076130371563L1285.4529924408532 373.4076130371563Q1278.2526210129229 373.4076130371563 1273.1659070041594 376.58971266820924Q1268.0559659907897 379.77181229926225 1265.0364553919803 385.0443423448756Q1262.0401717977772 390.3168723904889 1260.6233245167975 396.58816363417Q1259.1832502312116 402.859454877851 1259.1832502312116 408.8752490708636L1259.1832502312116 408.8752490708636L1259.1832502312116 450.0102742284901ZM1382.2863746442101 451.00903542655783L1382.2863746442101 451.00903542655783Q1368.3966258896867 451.00903542655783 1359.0361430333776 445.24873828421374Q1349.6756601770685 439.46521413726344 1345.0767132650356 429.26855911513013Q1340.4777663530028 419.0719040929969 1340.4777663530028 406.0183275042978L1340.4777663530028 406.0183275042978Q1340.4777663530028 392.8253888879613 1345.1463942788544 382.69841487964675Q1349.838249209312 372.57144087133213 1359.198732065621 366.71823571056314Q1368.5592149219303 360.86503054979414 1382.611552708697 360.86503054979414L1382.611552708697 360.86503054979414Q1396.5013014632202 360.86503054979414 1405.7688763011045 366.71823571056314Q1415.059678143595 372.57144087133213 1419.6586250556277 382.69841487964675Q1424.2575719676604 392.8253888879613 1424.2575719676604 406.0183275042978L1424.2575719676604 406.0183275042978Q1424.2575719676604 419.0719040929969 1419.565717037203 429.26855911513013Q1414.8970891113515 439.46521413726344 1405.606287268861 445.24873828421374Q1396.3154854263705 451.00903542655783 1382.2863746442101 451.00903542655783ZM1382.2863746442101 438.4664529391957L1382.2863746442101 438.4664529391957Q1391.9720355650063 438.4664529391957 1398.0807377764438 434.1230030778314Q1404.1894399878813 429.77955321646715 1407.1160425682658 422.4165927562934Q1410.0426451486503 415.05363229611976 1410.0426451486503 406.0183275042978L1410.0426451486503 406.0183275042978Q1410.0426451486503 397.006249717082 1407.1160425682658 389.64328925690836Q1404.1894399878813 382.28032879673464 1398.0807377764438 377.9368789353704Q1391.9720355650063 373.5934290740061 1382.2863746442101 373.5934290740061L1382.2863746442101 373.5934290740061Q1372.740075751051 373.5934290740061 1366.6313735396136 377.9368789353704Q1360.5458983327824 382.28032879673464 1357.6192957523979 389.64328925690836Q1354.6926931720134 397.006249717082 1354.6926931720134 406.0183275042978L1354.6926931720134 406.0183275042978Q1354.6926931720134 415.05363229611976 1357.6192957523979 422.4165927562934Q1360.5458983327824 429.77955321646715 1366.6313735396136 434.1230030778314Q1372.740075751051 438.4664529391957 1382.2863746442101 438.4664529391957ZM1457.5418695683825 481.78481652980753L1443.3269427493722 481.78481652980753L1443.3269427493722 361.8870187524681L1456.868286434802 361.8870187524681L1457.5418695683825 375.07995736880457Q1462.0479084619906 368.22799100996787 1469.8289550050763 364.5581242821841Q1477.6100015481622 360.86503054979414 1486.622079335378 360.86503054979414L1486.622079335378 360.86503054979414Q1500.0008339885642 360.86503054979414 1508.5483716836554 366.81114372898804Q1517.0726823741402 372.75725690818194 1521.160635184836 382.9539119303152Q1525.271815000138 393.1505669524485 1525.271815000138 406.0183275042978L1525.271815000138 406.0183275042978Q1525.271815000138 418.9093150607533 1521.0909541710173 429.1059700828866Q1516.9100933418965 439.30262510501984 1508.1999666145618 445.15583026578884Q1499.5130668918332 451.00903542655783 1485.9717232064033 451.00903542655783L1485.9717232064033 451.00903542655783Q1479.2823458798102 451.00903542655783 1473.9169078157722 449.59218814557806Q1468.5746967563398 448.17534086459824 1464.556424959463 445.41132731645735Q1460.5381531625858 442.6473137683164 1457.5418695683825 438.9774470405327L1457.5418695683825 438.9774470405327L1457.5418695683825 481.78481652980753ZM1484.7871459714859 438.4664529391957L1484.7871459714859 438.4664529391957Q1494.4960338968883 438.4664529391957 1500.1866500254139 434.0300950594065Q1505.854039149333 429.61696418422355 1508.4554636652304 422.2540037240498Q1511.0568881811278 414.89104326387616 1511.0568881811278 406.0183275042978L1511.0568881811278 406.0183275042978Q1511.0568881811278 397.006249717082 1508.4554636652304 389.64328925690836Q1505.854039149333 382.28032879673464 1500.0008339885642 377.9368789353704Q1494.147628827795 373.5934290740061 1484.4619679069988 373.5934290740061L1484.4619679069988 373.5934290740061Q1475.7518411796639 373.5934290740061 1469.6663659728326 378.00655994918907Q1463.5576637613951 382.44291782897824 1460.3755641303421 389.8987863075768Q1457.1934644992893 397.3314277815692 1457.1934644992893 406.2041435411476L1457.1934644992893 406.2041435411476Q1457.1934644992893 415.4020373652132 1460.2129750980987 422.7417708207806Q1463.2092586923018 430.1047312809543 1469.4108689221641 434.285592110075Q1475.5892521474204 438.4664529391957 1484.7871459714859 438.4664529391957Z " fill="#fdf0f0" transform="matrix(0.5736682358198484,0,0,0.5736682358198484,0,66.6404469888697)"/></g></svg>